<?xml version="1.0" encoding="UTF-8" standalone="no"?><svg xmlns="http://www.w3.org/2000/svg" xmlns:xlink="http://www.w3.org/1999/xlink" contentStyleType="text/css" height="282px" preserveAspectRatio="none" style="width:419px;height:282px;background:#FFFFFF;" version="1.1" viewBox="0 0 419 282" width="419px" zoomAndPan="magnify"><defs/><g><!--class oop.polymorph.AnnualVignette--><a href="AnnualVignette.html" target="_top" title="AnnualVignette.html" xlink:actuate="onRequest" xlink:href="AnnualVignette.html" xlink:show="new" xlink:title="AnnualVignette.html" xlink:type="simple"><g id="elem_oop.polymorph.AnnualVignette"><rect codeLine="5" fill="#F1F1F1" height="111.125" id="oop.polymorph.AnnualVignette" rx="2.5" ry="2.5" style="stroke:#181818;stroke-width:0.5;" width="270" x="54" y="146"/><ellipse cx="132.25" cy="164.9688" fill="#ADD1B2" rx="11" ry="11" style="stroke:#181818;stroke-width:1.0;"/><path d="M135.2188,170.6094 Q134.6406,170.9063 134,171.0469 Q133.3594,171.2031 132.6563,171.2031 Q130.1563,171.2031 128.8281,169.5625 Q127.5156,167.9063 127.5156,164.7813 Q127.5156,161.6563 128.8281,160 Q130.1563,158.3438 132.6563,158.3438 Q133.3594,158.3438 134,158.5 Q134.6563,158.6563 135.2188,158.9531 L135.2188,161.6719 Q134.5938,161.0938 134,160.8281 Q133.4063,160.5469 132.7813,160.5469 Q131.4375,160.5469 130.75,161.625 Q130.0625,162.6875 130.0625,164.7813 Q130.0625,166.875 130.75,167.9531 Q131.4375,169.0156 132.7813,169.0156 Q133.4063,169.0156 134,168.75 Q134.5938,168.4688 135.2188,167.8906 L135.2188,170.6094 Z " fill="#000000"/><text fill="#000000" font-family="sans-serif" font-size="14" lengthAdjust="spacing" textLength="105" x="152.75" y="163.9951">AnnualVignette</text><text fill="#000000" font-family="sans-serif" font-size="10" lengthAdjust="spacing" textLength="73" x="168.75" y="176.5791">oop.polymorph</text><line style="stroke:#181818;stroke-width:0.5;" x1="55" x2="323" y1="183.9375" y2="183.9375"/><ellipse cx="65" cy="197.5859" fill="#84BE84" rx="3" ry="3" style="stroke:#038048;stroke-width:1.0;"/><text fill="#000000" font-family="sans-serif" font-size="14" lengthAdjust="spacing" textLength="244" x="74" y="200.9326">AnnualVignette(Date, String, String)</text><ellipse cx="65" cy="213.8828" fill="#84BE84" rx="3" ry="3" style="stroke:#038048;stroke-width:1.0;"/><text fill="#000000" font-family="sans-serif" font-size="14" lengthAdjust="spacing" textLength="112" x="74" y="217.2295">validUntil(): Date</text><ellipse cx="65" cy="230.1797" fill="#84BE84" rx="3" ry="3" style="stroke:#038048;stroke-width:1.0;"/><text fill="#000000" font-family="sans-serif" font-size="14" lengthAdjust="spacing" textLength="118" x="74" y="233.5264">isValid(): boolean</text><ellipse cx="65" cy="246.4766" fill="#84BE84" rx="3" ry="3" style="stroke:#038048;stroke-width:1.0;"/><text fill="#000000" font-family="sans-serif" font-size="14" lengthAdjust="spacing" textLength="201" x="74" y="249.8232">changePlate(String): boolean</text></g></a><!--class oop.polymorph.VignetteBase--><a href="VignetteBase.html" target="_top" title="VignetteBase.html" xlink:actuate="onRequest" xlink:href="VignetteBase.html" xlink:show="new" xlink:title="VignetteBase.html" xlink:type="simple"><g id="elem_oop.polymorph.VignetteBase"><rect codeLine="12" fill="#F1F1F1" height="78.5313" id="oop.polymorph.VignetteBase" rx="2.5" ry="2.5" style="stroke:#181818;stroke-width:0.5;" width="144" x="7" y="7"/><ellipse cx="30.55" cy="25.9688" fill="#A9DCDF" rx="11" ry="11" style="stroke:#181818;stroke-width:1.0;"/><path d="M30.6594,21.3125 L29.5031,26.3906 L31.8313,26.3906 L30.6594,21.3125 Z M29.175,19.0781 L32.1594,19.0781 L35.5188,31.4688 L33.0656,31.4688 L32.3,28.4063 L29.0188,28.4063 L28.2688,31.4688 L25.8313,31.4688 L29.175,19.0781 Z " fill="#000000"/><text fill="#000000" font-family="sans-serif" font-size="14" font-style="italic" lengthAdjust="spacing" textLength="93" x="46.45" y="24.9951">VignetteBase</text><text fill="#000000" font-family="sans-serif" font-size="10" font-style="italic" lengthAdjust="spacing" textLength="74" x="55.95" y="37.5791">oop.polymorph</text><line style="stroke:#181818;stroke-width:0.5;" x1="8" x2="150" y1="44.9375" y2="44.9375"/><ellipse cx="18" cy="58.5859" fill="#84BE84" rx="3" ry="3" style="stroke:#038048;stroke-width:1.0;"/><text fill="#000000" font-family="sans-serif" font-size="14" font-style="italic" lengthAdjust="spacing" textLength="113" x="27" y="61.9326">validUntil(): Date</text><ellipse cx="18" cy="74.8828" fill="#84BE84" rx="3" ry="3" style="stroke:#038048;stroke-width:1.0;"/><text fill="#000000" font-family="sans-serif" font-size="14" font-style="italic" lengthAdjust="spacing" textLength="118" x="27" y="78.2295">isValid(): boolean</text></g></a><!--class oop.polymorph.ICanChangePlate--><a href="ICanChangePlate.html" target="_top" title="ICanChangePlate.html" xlink:actuate="onRequest" xlink:href="ICanChangePlate.html" xlink:show="new" xlink:title="ICanChangePlate.html" xlink:type="simple"><g id="elem_oop.polymorph.ICanChangePlate"><rect codeLine="16" fill="#F1F1F1" height="62.2344" id="oop.polymorph.ICanChangePlate" rx="2.5" ry="2.5" style="stroke:#181818;stroke-width:0.5;" width="226" x="186" y="15.5"/><ellipse cx="235.75" cy="34.4688" fill="#B4A7E5" rx="11" ry="11" style="stroke:#181818;stroke-width:1.0;"/><path d="M231.6719,30.2344 L231.6719,28.0781 L239.0625,28.0781 L239.0625,30.2344 L236.5938,30.2344 L236.5938,38.3125 L239.0625,38.3125 L239.0625,40.4688 L231.6719,40.4688 L231.6719,38.3125 L234.1406,38.3125 L234.1406,30.2344 L231.6719,30.2344 Z " fill="#000000"/><text fill="#000000" font-family="sans-serif" font-size="14" font-style="italic" lengthAdjust="spacing" textLength="118" x="256.25" y="33.4951">ICanChangePlate</text><text fill="#000000" font-family="sans-serif" font-size="10" font-style="italic" lengthAdjust="spacing" textLength="74" x="278.25" y="46.0791">oop.polymorph</text><line style="stroke:#181818;stroke-width:0.5;" x1="187" x2="411" y1="53.4375" y2="53.4375"/><ellipse cx="197" cy="67.0859" fill="#84BE84" rx="3" ry="3" style="stroke:#038048;stroke-width:1.0;"/><text fill="#000000" font-family="sans-serif" font-size="14" font-style="italic" lengthAdjust="spacing" textLength="200" x="206" y="70.4326">changePlate(String): boolean</text></g></a><!--reverse link oop.polymorph.VignetteBase to oop.polymorph.AnnualVignette--><g id="link_oop.polymorph.VignetteBase_oop.polymorph.AnnualVignette"><path codeLine="20" d="M118.59,102.57 C128.69,116.61 139.53,131.7 149.62,145.72 " fill="none" id="oop.polymorph.VignetteBase-backto-oop.polymorph.AnnualVignette" style="stroke:#181818;stroke-width:1.0;"/><polygon fill="none" points="112.75,106.43,106.76,86.11,124.12,98.26,112.75,106.43" style="stroke:#181818;stroke-width:1.0;"/></g><!--reverse link oop.polymorph.ICanChangePlate to oop.polymorph.AnnualVignette--><g id="link_oop.polymorph.ICanChangePlate_oop.polymorph.AnnualVignette"><path codeLine="21" d="M265.48,94.12 C253.74,110.45 240.45,128.94 228.27,145.87 " fill="none" id="oop.polymorph.ICanChangePlate-backto-oop.polymorph.AnnualVignette" style="stroke:#181818;stroke-width:1.0;stroke-dasharray:7.0,7.0;"/><polygon fill="none" points="259.91,89.88,277.27,77.73,271.28,98.05,259.91,89.88" style="stroke:#181818;stroke-width:1.0;"/></g><text fill="#888888" font-family="sans-serif" font-size="10" lengthAdjust="spacing" textLength="186" x="109.5" y="272.4072">UMLDoclet 2.1.0, PlantUML 1.2022.14</text><!--SRC=[bLDDQm8n4BttLmn2OQKQjFGa8hHwARHG4BrO3-Cwke7iPDbC1Ql-zsRzO3zibvh3XdtlpIJl9G40S2J069DBCAGn9PYYs1JOCjrv6YAz9A0uaIsiD9cbgw8nIMGzVCH3Wyv1e-_qD_MwJuDdvYyqKxrc4g5FFXETWRM9IgpPnZPDeWQWWnAYoeKmcvK15KbivdFO7LVDnaDP48nGg0LZIJMlBtCpLs_GwEM4HPkWsODCd7FQJJCs8nRM6aBEkJ12NjE7yGN1kMbPTJW5WGidAOPobSXbWo_eRicZMERJAFvUPx6xh7weDLgK_U7vSFng5afN_duKVBmEaOTv63TOgLHwDnMatj1_Jw0cl_w-tQwzRxyqgEwwlrUgliVfGL2M7QoipQR9-zl8XiO_kKVLLPqM-5ui7eNx3QLEMmwQFm00]--></g></svg>