<?xml version="1.0" encoding="UTF-8" standalone="no"?><svg xmlns="http://www.w3.org/2000/svg" xmlns:xlink="http://www.w3.org/1999/xlink" contentStyleType="text/css" height="482px" preserveAspectRatio="none" style="width:1148px;height:482px;background:#FFFFFF;" version="1.1" viewBox="0 0 1148 482" width="1148px" zoomAndPan="magnify"><defs/><g><!--cluster oop.polymorph--><g id="cluster_oop.polymorph"><path d="M8.5,6 L128.5,6 A3.75,3.75 0 0 1 131,8.5 L138,28.2969 L1138.5,28.2969 A2.5,2.5 0 0 1 1141,30.7969 L1141,454.5 A2.5,2.5 0 0 1 1138.5,457 L8.5,457 A2.5,2.5 0 0 1 6,454.5 L6,8.5 A2.5,2.5 0 0 1 8.5,6 " fill="none" style="stroke:#000000;stroke-width:1.5;"/><line style="stroke:#000000;stroke-width:1.5;" x1="6" x2="138" y1="28.2969" y2="28.2969"/><text fill="#000000" font-family="sans-serif" font-size="14" font-weight="bold" lengthAdjust="spacing" textLength="119" x="10" y="20.9951">oop.polymorph</text></g><!--class oop.polymorph.VignetteBase--><a href="VignetteBase.html" target="_top" title="VignetteBase.html" xlink:actuate="onRequest" xlink:href="VignetteBase.html" xlink:show="new" xlink:title="VignetteBase.html" xlink:type="simple"><g id="elem_oop.polymorph.VignetteBase"><rect codeLine="3" fill="#F1F1F1" height="227.2656" id="oop.polymorph.VignetteBase" rx="2.5" ry="2.5" style="stroke:#181818;stroke-width:0.5;" width="258" x="565" y="41"/><ellipse cx="643.25" cy="57" fill="#A9DCDF" rx="11" ry="11" style="stroke:#181818;stroke-width:1.0;"/><path d="M643.3594,52.3438 L642.2031,57.4219 L644.5313,57.4219 L643.3594,52.3438 Z M641.875,50.1094 L644.8594,50.1094 L648.2188,62.5 L645.7656,62.5 L645,59.4375 L641.7188,59.4375 L640.9688,62.5 L638.5313,62.5 L641.875,50.1094 Z " fill="#000000"/><text fill="#000000" font-family="sans-serif" font-size="14" font-style="italic" lengthAdjust="spacing" textLength="93" x="663.75" y="61.8467">VignetteBase</text><line style="stroke:#181818;stroke-width:0.5;" x1="566" x2="822" y1="73" y2="73"/><polygon fill="none" points="576,81.6484,580,85.6484,576,89.6484,572,85.6484" style="stroke:#B38D22;stroke-width:1.0;"/><text fill="#000000" font-family="sans-serif" font-size="14" lengthAdjust="spacing" textLength="106" x="585" y="89.9951">startDate: Date</text><polygon fill="none" points="576,97.9453,580,101.9453,576,105.9453,572,101.9453" style="stroke:#B38D22;stroke-width:1.0;"/><text fill="#000000" font-family="sans-serif" font-size="14" lengthAdjust="spacing" textLength="103" x="585" y="106.292">kfzType: String</text><polygon fill="none" points="576,114.2422,580,118.2422,576,122.2422,572,118.2422" style="stroke:#B38D22;stroke-width:1.0;"/><text fill="#000000" font-family="sans-serif" font-size="14" lengthAdjust="spacing" textLength="83" x="585" y="122.5889">plate: String</text><line style="stroke:#181818;stroke-width:0.5;" x1="566" x2="822" y1="129.8906" y2="129.8906"/><ellipse cx="576" cy="143.5391" fill="#84BE84" rx="3" ry="3" style="stroke:#038048;stroke-width:1.0;"/><text fill="#000000" font-family="sans-serif" font-size="14" lengthAdjust="spacing" textLength="184" x="585" y="146.8857">VignetteBase(Date, String)</text><ellipse cx="576" cy="159.8359" fill="#84BE84" rx="3" ry="3" style="stroke:#038048;stroke-width:1.0;"/><text fill="#000000" font-family="sans-serif" font-size="14" lengthAdjust="spacing" textLength="232" x="585" y="163.1826">VignetteBase(Date, String, String)</text><ellipse cx="576" cy="176.1328" fill="#84BE84" rx="3" ry="3" style="stroke:#038048;stroke-width:1.0;"/><text fill="#000000" font-family="sans-serif" font-size="14" lengthAdjust="spacing" textLength="116" x="585" y="179.4795">getPlate(): String</text><ellipse cx="576" cy="192.4297" fill="#84BE84" rx="3" ry="3" style="stroke:#038048;stroke-width:1.0;"/><text fill="#000000" font-family="sans-serif" font-size="14" font-style="italic" lengthAdjust="spacing" textLength="113" x="585" y="195.7764">validUntil(): Date</text><ellipse cx="576" cy="208.7266" fill="#84BE84" rx="3" ry="3" style="stroke:#038048;stroke-width:1.0;"/><text fill="#000000" font-family="sans-serif" font-size="14" lengthAdjust="spacing" textLength="137" x="585" y="212.0732">isExpired(): boolean</text><ellipse cx="576" cy="225.0234" fill="#84BE84" rx="3" ry="3" style="stroke:#038048;stroke-width:1.0;"/><text fill="#000000" font-family="sans-serif" font-size="14" font-style="italic" lengthAdjust="spacing" textLength="118" x="585" y="228.3701">isValid(): boolean</text><ellipse cx="576" cy="241.3203" fill="#84BE84" rx="3" ry="3" style="stroke:#038048;stroke-width:1.0;"/><text fill="#000000" font-family="sans-serif" font-size="14" lengthAdjust="spacing" textLength="106" x="585" y="244.667">display(): String</text><polygon fill="#FFFF44" points="576,252.6172,580,256.6172,576,260.6172,572,256.6172" style="stroke:#B38D22;stroke-width:1.0;"/><text fill="#000000" font-family="sans-serif" font-size="14" lengthAdjust="spacing" textLength="176" x="585" y="260.9639">getEndOfDay(Date): Date</text></g></a><!--class oop.polymorph.TenDayVignette--><a href="TenDayVignette.html" target="_top" title="TenDayVignette.html" xlink:actuate="onRequest" xlink:href="TenDayVignette.html" xlink:show="new" xlink:title="TenDayVignette.html" xlink:type="simple"><g id="elem_oop.polymorph.TenDayVignette"><rect codeLine="17" fill="#F1F1F1" height="96.8906" id="oop.polymorph.TenDayVignette" rx="2.5" ry="2.5" style="stroke:#181818;stroke-width:0.5;" width="228" x="327" y="336"/><ellipse cx="381.25" cy="352" fill="#ADD1B2" rx="11" ry="11" style="stroke:#181818;stroke-width:1.0;"/><path d="M384.2188,357.6406 Q383.6406,357.9375 383,358.0781 Q382.3594,358.2344 381.6563,358.2344 Q379.1563,358.2344 377.8281,356.5938 Q376.5156,354.9375 376.5156,351.8125 Q376.5156,348.6875 377.8281,347.0313 Q379.1563,345.375 381.6563,345.375 Q382.3594,345.375 383,345.5313 Q383.6563,345.6875 384.2188,345.9844 L384.2188,348.7031 Q383.5938,348.125 383,347.8594 Q382.4063,347.5781 381.7813,347.5781 Q380.4375,347.5781 379.75,348.6563 Q379.0625,349.7188 379.0625,351.8125 Q379.0625,353.9063 379.75,354.9844 Q380.4375,356.0469 381.7813,356.0469 Q382.4063,356.0469 383,355.7813 Q383.5938,355.5 384.2188,354.9219 L384.2188,357.6406 Z " fill="#000000"/><text fill="#000000" font-family="sans-serif" font-size="14" lengthAdjust="spacing" textLength="111" x="401.75" y="356.8467">TenDayVignette</text><line style="stroke:#181818;stroke-width:0.5;" x1="328" x2="554" y1="368" y2="368"/><line style="stroke:#181818;stroke-width:0.5;" x1="328" x2="554" y1="376" y2="376"/><ellipse cx="338" cy="389.6484" fill="#84BE84" rx="3" ry="3" style="stroke:#038048;stroke-width:1.0;"/><text fill="#000000" font-family="sans-serif" font-size="14" lengthAdjust="spacing" textLength="202" x="347" y="392.9951">TenDayVignette(Date, String)</text><ellipse cx="338" cy="405.9453" fill="#84BE84" rx="3" ry="3" style="stroke:#038048;stroke-width:1.0;"/><text fill="#000000" font-family="sans-serif" font-size="14" lengthAdjust="spacing" textLength="112" x="347" y="409.292">validUntil(): Date</text><ellipse cx="338" cy="422.2422" fill="#84BE84" rx="3" ry="3" style="stroke:#038048;stroke-width:1.0;"/><text fill="#000000" font-family="sans-serif" font-size="14" lengthAdjust="spacing" textLength="118" x="347" y="425.5889">isValid(): boolean</text></g></a><!--class oop.polymorph.AnnualVignette--><a href="AnnualVignette.html" target="_top" title="AnnualVignette.html" xlink:actuate="onRequest" xlink:href="AnnualVignette.html" xlink:show="new" xlink:title="AnnualVignette.html" xlink:type="simple"><g id="elem_oop.polymorph.AnnualVignette"><rect codeLine="23" fill="#F1F1F1" height="113.1875" id="oop.polymorph.AnnualVignette" rx="2.5" ry="2.5" style="stroke:#181818;stroke-width:0.5;" width="270" x="22" y="328"/><ellipse cx="100.25" cy="344" fill="#ADD1B2" rx="11" ry="11" style="stroke:#181818;stroke-width:1.0;"/><path d="M103.2188,349.6406 Q102.6406,349.9375 102,350.0781 Q101.3594,350.2344 100.6563,350.2344 Q98.1563,350.2344 96.8281,348.5938 Q95.5156,346.9375 95.5156,343.8125 Q95.5156,340.6875 96.8281,339.0313 Q98.1563,337.375 100.6563,337.375 Q101.3594,337.375 102,337.5313 Q102.6563,337.6875 103.2188,337.9844 L103.2188,340.7031 Q102.5938,340.125 102,339.8594 Q101.4063,339.5781 100.7813,339.5781 Q99.4375,339.5781 98.75,340.6563 Q98.0625,341.7188 98.0625,343.8125 Q98.0625,345.9063 98.75,346.9844 Q99.4375,348.0469 100.7813,348.0469 Q101.4063,348.0469 102,347.7813 Q102.5938,347.5 103.2188,346.9219 L103.2188,349.6406 Z " fill="#000000"/><text fill="#000000" font-family="sans-serif" font-size="14" lengthAdjust="spacing" textLength="105" x="120.75" y="348.8467">AnnualVignette</text><line style="stroke:#181818;stroke-width:0.5;" x1="23" x2="291" y1="360" y2="360"/><line style="stroke:#181818;stroke-width:0.5;" x1="23" x2="291" y1="368" y2="368"/><ellipse cx="33" cy="381.6484" fill="#84BE84" rx="3" ry="3" style="stroke:#038048;stroke-width:1.0;"/><text fill="#000000" font-family="sans-serif" font-size="14" lengthAdjust="spacing" textLength="244" x="42" y="384.9951">AnnualVignette(Date, String, String)</text><ellipse cx="33" cy="397.9453" fill="#84BE84" rx="3" ry="3" style="stroke:#038048;stroke-width:1.0;"/><text fill="#000000" font-family="sans-serif" font-size="14" lengthAdjust="spacing" textLength="112" x="42" y="401.292">validUntil(): Date</text><ellipse cx="33" cy="414.2422" fill="#84BE84" rx="3" ry="3" style="stroke:#038048;stroke-width:1.0;"/><text fill="#000000" font-family="sans-serif" font-size="14" lengthAdjust="spacing" textLength="118" x="42" y="417.5889">isValid(): boolean</text><ellipse cx="33" cy="430.5391" fill="#84BE84" rx="3" ry="3" style="stroke:#038048;stroke-width:1.0;"/><text fill="#000000" font-family="sans-serif" font-size="14" lengthAdjust="spacing" textLength="201" x="42" y="433.8857">changePlate(String): boolean</text></g></a><!--class oop.polymorph.TwoMonthsVignette--><a href="TwoMonthsVignette.html" target="_top" title="TwoMonthsVignette.html" xlink:actuate="onRequest" xlink:href="TwoMonthsVignette.html" xlink:show="new" xlink:title="TwoMonthsVignette.html" xlink:type="simple"><g id="elem_oop.polymorph.TwoMonthsVignette"><rect codeLine="30" fill="#F1F1F1" height="96.8906" id="oop.polymorph.TwoMonthsVignette" rx="2.5" ry="2.5" style="stroke:#181818;stroke-width:0.5;" width="256" x="590" y="336"/><ellipse cx="644.25" cy="352" fill="#ADD1B2" rx="11" ry="11" style="stroke:#181818;stroke-width:1.0;"/><path d="M647.2188,357.6406 Q646.6406,357.9375 646,358.0781 Q645.3594,358.2344 644.6563,358.2344 Q642.1563,358.2344 640.8281,356.5938 Q639.5156,354.9375 639.5156,351.8125 Q639.5156,348.6875 640.8281,347.0313 Q642.1563,345.375 644.6563,345.375 Q645.3594,345.375 646,345.5313 Q646.6563,345.6875 647.2188,345.9844 L647.2188,348.7031 Q646.5938,348.125 646,347.8594 Q645.4063,347.5781 644.7813,347.5781 Q643.4375,347.5781 642.75,348.6563 Q642.0625,349.7188 642.0625,351.8125 Q642.0625,353.9063 642.75,354.9844 Q643.4375,356.0469 644.7813,356.0469 Q645.4063,356.0469 646,355.7813 Q646.5938,355.5 647.2188,354.9219 L647.2188,357.6406 Z " fill="#000000"/><text fill="#000000" font-family="sans-serif" font-size="14" lengthAdjust="spacing" textLength="139" x="664.75" y="356.8467">TwoMonthsVignette</text><line style="stroke:#181818;stroke-width:0.5;" x1="591" x2="845" y1="368" y2="368"/><line style="stroke:#181818;stroke-width:0.5;" x1="591" x2="845" y1="376" y2="376"/><ellipse cx="601" cy="389.6484" fill="#84BE84" rx="3" ry="3" style="stroke:#038048;stroke-width:1.0;"/><text fill="#000000" font-family="sans-serif" font-size="14" lengthAdjust="spacing" textLength="230" x="610" y="392.9951">TwoMonthsVignette(Date, String)</text><ellipse cx="601" cy="405.9453" fill="#84BE84" rx="3" ry="3" style="stroke:#038048;stroke-width:1.0;"/><text fill="#000000" font-family="sans-serif" font-size="14" lengthAdjust="spacing" textLength="112" x="610" y="409.292">validUntil(): Date</text><ellipse cx="601" cy="422.2422" fill="#84BE84" rx="3" ry="3" style="stroke:#038048;stroke-width:1.0;"/><text fill="#000000" font-family="sans-serif" font-size="14" lengthAdjust="spacing" textLength="118" x="610" y="425.5889">isValid(): boolean</text></g></a><!--class oop.polymorph.SingleDayVignette--><a href="SingleDayVignette.html" target="_top" title="SingleDayVignette.html" xlink:actuate="onRequest" xlink:href="SingleDayVignette.html" xlink:show="new" xlink:title="SingleDayVignette.html" xlink:type="simple"><g id="elem_oop.polymorph.SingleDayVignette"><rect codeLine="36" fill="#F1F1F1" height="96.8906" id="oop.polymorph.SingleDayVignette" rx="2.5" ry="2.5" style="stroke:#181818;stroke-width:0.5;" width="243" x="881.5" y="336"/><ellipse cx="935.75" cy="352" fill="#ADD1B2" rx="11" ry="11" style="stroke:#181818;stroke-width:1.0;"/><path d="M938.7188,357.6406 Q938.1406,357.9375 937.5,358.0781 Q936.8594,358.2344 936.1563,358.2344 Q933.6563,358.2344 932.3281,356.5938 Q931.0156,354.9375 931.0156,351.8125 Q931.0156,348.6875 932.3281,347.0313 Q933.6563,345.375 936.1563,345.375 Q936.8594,345.375 937.5,345.5313 Q938.1563,345.6875 938.7188,345.9844 L938.7188,348.7031 Q938.0938,348.125 937.5,347.8594 Q936.9063,347.5781 936.2813,347.5781 Q934.9375,347.5781 934.25,348.6563 Q933.5625,349.7188 933.5625,351.8125 Q933.5625,353.9063 934.25,354.9844 Q934.9375,356.0469 936.2813,356.0469 Q936.9063,356.0469 937.5,355.7813 Q938.0938,355.5 938.7188,354.9219 L938.7188,357.6406 Z " fill="#000000"/><text fill="#000000" font-family="sans-serif" font-size="14" lengthAdjust="spacing" textLength="126" x="956.25" y="356.8467">SingleDayVignette</text><line style="stroke:#181818;stroke-width:0.5;" x1="882.5" x2="1123.5" y1="368" y2="368"/><line style="stroke:#181818;stroke-width:0.5;" x1="882.5" x2="1123.5" y1="376" y2="376"/><ellipse cx="892.5" cy="389.6484" fill="#84BE84" rx="3" ry="3" style="stroke:#038048;stroke-width:1.0;"/><text fill="#000000" font-family="sans-serif" font-size="14" lengthAdjust="spacing" textLength="217" x="901.5" y="392.9951">SingleDayVignette(Date, String)</text><ellipse cx="892.5" cy="405.9453" fill="#84BE84" rx="3" ry="3" style="stroke:#038048;stroke-width:1.0;"/><text fill="#000000" font-family="sans-serif" font-size="14" lengthAdjust="spacing" textLength="112" x="901.5" y="409.292">validUntil(): Date</text><ellipse cx="892.5" cy="422.2422" fill="#84BE84" rx="3" ry="3" style="stroke:#038048;stroke-width:1.0;"/><text fill="#000000" font-family="sans-serif" font-size="14" lengthAdjust="spacing" textLength="118" x="901.5" y="425.5889">isValid(): boolean</text></g></a><!--class oop.polymorph.Main--><a href="Main.html" target="_top" title="Main.html" xlink:actuate="onRequest" xlink:href="Main.html" xlink:show="new" xlink:title="Main.html" xlink:type="simple"><g id="elem_oop.polymorph.Main"><rect codeLine="42" fill="#F1F1F1" height="64.2969" id="oop.polymorph.Main" rx="2.5" ry="2.5" style="stroke:#181818;stroke-width:0.5;" width="156" x="351" y="122.5"/><ellipse cx="408.75" cy="138.5" fill="#ADD1B2" rx="11" ry="11" style="stroke:#181818;stroke-width:1.0;"/><path d="M411.7188,144.1406 Q411.1406,144.4375 410.5,144.5781 Q409.8594,144.7344 409.1563,144.7344 Q406.6563,144.7344 405.3281,143.0938 Q404.0156,141.4375 404.0156,138.3125 Q404.0156,135.1875 405.3281,133.5313 Q406.6563,131.875 409.1563,131.875 Q409.8594,131.875 410.5,132.0313 Q411.1563,132.1875 411.7188,132.4844 L411.7188,135.2031 Q411.0938,134.625 410.5,134.3594 Q409.9063,134.0781 409.2813,134.0781 Q407.9375,134.0781 407.25,135.1563 Q406.5625,136.2188 406.5625,138.3125 Q406.5625,140.4063 407.25,141.4844 Q407.9375,142.5469 409.2813,142.5469 Q409.9063,142.5469 410.5,142.2813 Q411.0938,142 411.7188,141.4219 L411.7188,144.1406 Z " fill="#000000"/><text fill="#000000" font-family="sans-serif" font-size="14" lengthAdjust="spacing" textLength="32" x="429.25" y="143.3467">Main</text><line style="stroke:#181818;stroke-width:0.5;" x1="352" x2="506" y1="154.5" y2="154.5"/><line style="stroke:#181818;stroke-width:0.5;" x1="352" x2="506" y1="162.5" y2="162.5"/><ellipse cx="362" cy="176.1484" fill="#84BE84" rx="3" ry="3" style="stroke:#038048;stroke-width:1.0;"/><text fill="#000000" font-family="sans-serif" font-size="14" lengthAdjust="spacing" text-decoration="underline" textLength="130" x="371" y="179.4951">main(String[]): void</text></g></a><!--class oop.polymorph.ICanChangePlate--><a href="ICanChangePlate.html" target="_top" title="ICanChangePlate.html" xlink:actuate="onRequest" xlink:href="ICanChangePlate.html" xlink:show="new" xlink:title="ICanChangePlate.html" xlink:type="simple"><g id="elem_oop.polymorph.ICanChangePlate"><rect codeLine="46" fill="#F1F1F1" height="64.2969" id="oop.polymorph.ICanChangePlate" rx="2.5" ry="2.5" style="stroke:#181818;stroke-width:0.5;" width="226" x="44" y="122.5"/><ellipse cx="93.75" cy="138.5" fill="#B4A7E5" rx="11" ry="11" style="stroke:#181818;stroke-width:1.0;"/><path d="M89.6719,134.2656 L89.6719,132.1094 L97.0625,132.1094 L97.0625,134.2656 L94.5938,134.2656 L94.5938,142.3438 L97.0625,142.3438 L97.0625,144.5 L89.6719,144.5 L89.6719,142.3438 L92.1406,142.3438 L92.1406,134.2656 L89.6719,134.2656 Z " fill="#000000"/><text fill="#000000" font-family="sans-serif" font-size="14" font-style="italic" lengthAdjust="spacing" textLength="118" x="114.25" y="143.3467">ICanChangePlate</text><line style="stroke:#181818;stroke-width:0.5;" x1="45" x2="269" y1="154.5" y2="154.5"/><line style="stroke:#181818;stroke-width:0.5;" x1="45" x2="269" y1="162.5" y2="162.5"/><ellipse cx="55" cy="176.1484" fill="#84BE84" rx="3" ry="3" style="stroke:#038048;stroke-width:1.0;"/><text fill="#000000" font-family="sans-serif" font-size="14" font-style="italic" lengthAdjust="spacing" textLength="200" x="64" y="179.4951">changePlate(String): boolean</text></g></a><!--reverse link oop.polymorph.VignetteBase to oop.polymorph.TenDayVignette--><g id="link_oop.polymorph.VignetteBase_oop.polymorph.TenDayVignette"><path codeLine="50" d="M554.09,281.59 C532.65,300.91 511.73,319.76 493.83,335.89 " fill="none" id="oop.polymorph.VignetteBase-backto-oop.polymorph.TenDayVignette" style="stroke:#181818;stroke-width:1.0;"/><polygon fill="none" points="549.44,276.35,568.98,268.16,558.81,286.75,549.44,276.35" style="stroke:#181818;stroke-width:1.0;"/></g><!--reverse link oop.polymorph.VignetteBase to oop.polymorph.AnnualVignette--><g id="link_oop.polymorph.VignetteBase_oop.polymorph.AnnualVignette"><path codeLine="51" d="M547.18,257.04 C539.79,260.94 532.38,264.62 525,268 C434.81,309.33 404.48,297.73 310,328 C304.21,329.85 298.32,331.79 292.38,333.77 " fill="none" id="oop.polymorph.VignetteBase-backto-oop.polymorph.AnnualVignette" style="stroke:#181818;stroke-width:1.0;"/><polygon fill="none" points="544,250.8,564.89,247.25,550.77,263.05,544,250.8" style="stroke:#181818;stroke-width:1.0;"/></g><!--reverse link oop.polymorph.ICanChangePlate to oop.polymorph.AnnualVignette--><g id="link_oop.polymorph.ICanChangePlate_oop.polymorph.AnnualVignette"><path codeLine="52" d="M157,206.83 C157,242.79 157,290.81 157,327.71 " fill="none" id="oop.polymorph.ICanChangePlate-backto-oop.polymorph.AnnualVignette" style="stroke:#181818;stroke-width:1.0;stroke-dasharray:7.0,7.0;"/><polygon fill="none" points="150,206.72,157,186.72,164,206.72,150,206.72" style="stroke:#181818;stroke-width:1.0;"/></g><!--reverse link oop.polymorph.VignetteBase to oop.polymorph.TwoMonthsVignette--><g id="link_oop.polymorph.VignetteBase_oop.polymorph.TwoMonthsVignette"><path codeLine="53" d="M707.97,288.25 C709.76,305.22 711.49,321.62 712.99,335.89 " fill="none" id="oop.polymorph.VignetteBase-backto-oop.polymorph.TwoMonthsVignette" style="stroke:#181818;stroke-width:1.0;"/><polygon fill="none" points="700.99,288.79,705.86,268.16,714.91,287.32,700.99,288.79" style="stroke:#181818;stroke-width:1.0;"/></g><!--reverse link oop.polymorph.VignetteBase to oop.polymorph.SingleDayVignette--><g id="link_oop.polymorph.VignetteBase_oop.polymorph.SingleDayVignette"><path codeLine="54" d="M839.63,262.96 C874.26,288.51 909.49,314.5 938.32,335.77 " fill="none" id="oop.polymorph.VignetteBase-backto-oop.polymorph.SingleDayVignette" style="stroke:#181818;stroke-width:1.0;"/><polygon fill="none" points="835.19,268.38,823.25,250.87,843.5,257.11,835.19,268.38" style="stroke:#181818;stroke-width:1.0;"/></g><text fill="#888888" font-family="sans-serif" font-size="10" lengthAdjust="spacing" textLength="186" x="474" y="472.2822">UMLDoclet 2.1.0, PlantUML 1.2022.14</text><!--SRC=[lLHDRy8m3BtpAooXIQ12jUquxR81Xqb3cyJ71N48RIZHqgHgCZO6_FSvK4RJDenf4ZaqglrYF_iv0G0G9AOg8G45AHC_aNmLopHPmBfMWsoHcT8f2JG4d2W5OnO9gZLz98h2P9B_zHSwvjCf7eRSgYjDKjqbcjw1-ThEj_dNS9MWQw1J9YBRcV3TgGgNby_RC65R6Qnv9iw1ZwX-DLaRpSgywqCtjk0j2MVXI6Z63RXKciTKxpDXAGsDUoObfqGuWp4rDk5SK2za2hknSj2g8-sU25_cNOGO9aL2swEUUnc7L23sq1qKqZPKI-dPe5Dz_xqvpdfBN1-4U2SynzKsEBZQe7Eq_mVddJzO417H_VXa2SweRlWX-rBeXSgBKRIvz2ZYBYN90CDpQazGoUOWNS9TYdIVC84ypLPDROrFbMO1NiSOCPc6aod6NaeMLWLcGjDqRjxFfmuHdUC0O9w2nP4ozmRyTNwif_X-qsuNRlK9e7qvVe358kutlk_2LcGlJkC9R6a8QhdY0chQ2dCfpJRgFtTbmAc6M__6lsu1SXCQhN2rfAbYKZIQtm00]--></g></svg>